<?xml version="1.0" encoding="UTF-8"?>
<svg width="146px" height="146px" viewBox="0 0 146 146" version="1.1" xmlns="http://www.w3.org/2000/svg" xmlns:xlink="http://www.w3.org/1999/xlink">
    <!-- Generator: Sketch 52.3 (67297) - http://www.bohemiancoding.com/sketch -->
    <title>icon_invoicegeneration</title>
    <desc>Created with Sketch.</desc>
    <defs>
        <path d="M43.88,31.42 L43.88,118 L32.7,118 L32.7,31.42 L43.88,31.42 Z M75.86,56.25 L75.86,93.17 C75.86,104.22 79.11,109.16 93.93,109.16 C98.48,109.16 104.2,108.77 110.18,107.6 L110.18,78.22 L120.97,78.22 L120.97,115.53 C112.52,118 102.51,119.3 93.54,119.3 C71.44,119.3 64.68,109.81 64.68,93.82 L64.68,55.73 C64.68,38.18 73.39,30.12 94.97,30.12 C102.38,30.12 110.96,31.03 119.02,32.85 L117.72,42.47 C109.4,41.04 101.6,40.26 94.45,40.26 C80.15,40.26 75.86,44.55 75.86,56.25 Z" id="path-1"></path>
    </defs>
    <g id="Page-1" stroke="none" stroke-width="1" fill="none" fill-rule="evenodd">
        <g id="icon_invoicegeneration">
            <rect id="Rectangle-path" fill="#D2232A" x="0" y="0" width="146" height="146" rx="4"></rect>
            <g id="IG">
                <use fill="#000000" xlink:href="#path-1"></use>
                <use fill="#FFFFFF" xlink:href="#path-1"></use>
            </g>
        </g>
    </g>
</svg>